<mxfile host="app.diagrams.net" modified="2022-10-21T09:03:44.568Z" agent="5.0 (Windows NT 10.0; Win64; x64) AppleWebKit/537.36 (KHTML, like Gecko) Chrome/106.0.0.0 Safari/537.36" etag="8kSIzQy_7tQ9IrAKMCy-" version="20.4.2" type="github">
  <diagram id="mjqjphKT3-RKm4p1m108" name="Page-1">
    <mxGraphModel dx="868" dy="1582" grid="1" gridSize="10" guides="1" tooltips="1" connect="1" arrows="1" fold="1" page="1" pageScale="1" pageWidth="850" pageHeight="1100" math="0" shadow="0">
      <root>
        <mxCell id="0" />
        <mxCell id="1" parent="0" />
        <mxCell id="olx1wI82DX2hjwp3p9a5-17" value="" style="edgeStyle=orthogonalEdgeStyle;rounded=0;orthogonalLoop=1;jettySize=auto;html=1;" edge="1" parent="1" source="olx1wI82DX2hjwp3p9a5-1" target="olx1wI82DX2hjwp3p9a5-9">
          <mxGeometry relative="1" as="geometry" />
        </mxCell>
        <mxCell id="olx1wI82DX2hjwp3p9a5-1" value="Receive&lt;br&gt;Order" style="rounded=1;whiteSpace=wrap;html=1;fillColor=#b0e3e6;strokeColor=#0e8088;" vertex="1" parent="1">
          <mxGeometry x="80" y="-387.5" width="90" height="50" as="geometry" />
        </mxCell>
        <mxCell id="olx1wI82DX2hjwp3p9a5-18" value="" style="edgeStyle=orthogonalEdgeStyle;rounded=0;orthogonalLoop=1;jettySize=auto;html=1;" edge="1" parent="1" source="olx1wI82DX2hjwp3p9a5-2" target="olx1wI82DX2hjwp3p9a5-11">
          <mxGeometry relative="1" as="geometry" />
        </mxCell>
        <mxCell id="olx1wI82DX2hjwp3p9a5-2" value="Pack Items" style="rounded=1;whiteSpace=wrap;html=1;fillColor=#b0e3e6;strokeColor=#0e8088;" vertex="1" parent="1">
          <mxGeometry x="290" y="-387.5" width="90" height="50" as="geometry" />
        </mxCell>
        <mxCell id="olx1wI82DX2hjwp3p9a5-7" value="" style="edgeStyle=orthogonalEdgeStyle;rounded=0;orthogonalLoop=1;jettySize=auto;html=1;" edge="1" parent="1" source="olx1wI82DX2hjwp3p9a5-5" target="olx1wI82DX2hjwp3p9a5-1">
          <mxGeometry relative="1" as="geometry" />
        </mxCell>
        <mxCell id="olx1wI82DX2hjwp3p9a5-5" value="" style="ellipse;whiteSpace=wrap;html=1;aspect=fixed;strokeColor=#000000;fillColor=#000000;" vertex="1" parent="1">
          <mxGeometry x="20" y="-375" width="25" height="25" as="geometry" />
        </mxCell>
        <mxCell id="olx1wI82DX2hjwp3p9a5-13" value="[order accepted]" style="edgeStyle=orthogonalEdgeStyle;rounded=0;orthogonalLoop=1;jettySize=auto;html=1;" edge="1" parent="1" source="olx1wI82DX2hjwp3p9a5-9" target="olx1wI82DX2hjwp3p9a5-2">
          <mxGeometry y="-12" relative="1" as="geometry">
            <mxPoint y="1" as="offset" />
          </mxGeometry>
        </mxCell>
        <mxCell id="olx1wI82DX2hjwp3p9a5-20" value="" style="edgeStyle=orthogonalEdgeStyle;rounded=0;orthogonalLoop=1;jettySize=auto;html=1;" edge="1" parent="1" source="olx1wI82DX2hjwp3p9a5-11" target="olx1wI82DX2hjwp3p9a5-19">
          <mxGeometry relative="1" as="geometry" />
        </mxCell>
        <mxCell id="olx1wI82DX2hjwp3p9a5-11" value="" style="rounded=0;whiteSpace=wrap;html=1;strokeColor=#000000;fillColor=#000000;rotation=-90;" vertex="1" parent="1">
          <mxGeometry x="356.25" y="-371.25" width="110" height="17.5" as="geometry" />
        </mxCell>
        <mxCell id="olx1wI82DX2hjwp3p9a5-9" value="" style="rhombus;whiteSpace=wrap;html=1;strokeColor=#0e8088;fillColor=#b0e3e6;" vertex="1" parent="1">
          <mxGeometry x="190" y="-382.5" width="20" height="40" as="geometry" />
        </mxCell>
        <mxCell id="olx1wI82DX2hjwp3p9a5-22" style="edgeStyle=orthogonalEdgeStyle;rounded=0;orthogonalLoop=1;jettySize=auto;html=1;entryX=0.5;entryY=0;entryDx=0;entryDy=0;" edge="1" parent="1" source="olx1wI82DX2hjwp3p9a5-19" target="olx1wI82DX2hjwp3p9a5-21">
          <mxGeometry relative="1" as="geometry" />
        </mxCell>
        <mxCell id="olx1wI82DX2hjwp3p9a5-19" value="Ship Order" style="rounded=1;whiteSpace=wrap;html=1;fillColor=#b0e3e6;strokeColor=#0e8088;" vertex="1" parent="1">
          <mxGeometry x="450" y="-387.5" width="90" height="50" as="geometry" />
        </mxCell>
        <mxCell id="olx1wI82DX2hjwp3p9a5-25" value="" style="edgeStyle=orthogonalEdgeStyle;rounded=0;orthogonalLoop=1;jettySize=auto;html=1;" edge="1" parent="1" source="olx1wI82DX2hjwp3p9a5-21" target="olx1wI82DX2hjwp3p9a5-23">
          <mxGeometry relative="1" as="geometry" />
        </mxCell>
        <mxCell id="olx1wI82DX2hjwp3p9a5-21" value="" style="rounded=0;whiteSpace=wrap;html=1;strokeColor=#000000;fillColor=#000000;rotation=-90;" vertex="1" parent="1">
          <mxGeometry x="510" y="-371.25" width="110" height="17.5" as="geometry" />
        </mxCell>
        <mxCell id="olx1wI82DX2hjwp3p9a5-44" value="" style="edgeStyle=orthogonalEdgeStyle;rounded=0;orthogonalLoop=1;jettySize=auto;html=1;" edge="1" parent="1" source="olx1wI82DX2hjwp3p9a5-23" target="olx1wI82DX2hjwp3p9a5-42">
          <mxGeometry relative="1" as="geometry" />
        </mxCell>
        <mxCell id="olx1wI82DX2hjwp3p9a5-23" value="" style="rhombus;whiteSpace=wrap;html=1;strokeColor=#0e8088;fillColor=#b0e3e6;" vertex="1" parent="1">
          <mxGeometry x="630" y="-382.5" width="20" height="40" as="geometry" />
        </mxCell>
        <mxCell id="olx1wI82DX2hjwp3p9a5-26" value="Notify Rejection" style="rounded=1;whiteSpace=wrap;html=1;fillColor=#b0e3e6;strokeColor=#0e8088;" vertex="1" parent="1">
          <mxGeometry x="371.25" y="-540" width="90" height="50" as="geometry" />
        </mxCell>
        <mxCell id="olx1wI82DX2hjwp3p9a5-34" value="" style="endArrow=none;html=1;rounded=0;" edge="1" parent="1">
          <mxGeometry width="50" height="50" relative="1" as="geometry">
            <mxPoint x="200" y="-382.5" as="sourcePoint" />
            <mxPoint x="200" y="-520" as="targetPoint" />
          </mxGeometry>
        </mxCell>
        <mxCell id="olx1wI82DX2hjwp3p9a5-35" value="" style="endArrow=classic;html=1;rounded=0;" edge="1" parent="1">
          <mxGeometry width="50" height="50" relative="1" as="geometry">
            <mxPoint x="200" y="-520" as="sourcePoint" />
            <mxPoint x="370" y="-520" as="targetPoint" />
          </mxGeometry>
        </mxCell>
        <mxCell id="olx1wI82DX2hjwp3p9a5-39" value="" style="endArrow=none;html=1;rounded=0;" edge="1" parent="1">
          <mxGeometry width="50" height="50" relative="1" as="geometry">
            <mxPoint x="460" y="-520" as="sourcePoint" />
            <mxPoint x="641" y="-520" as="targetPoint" />
          </mxGeometry>
        </mxCell>
        <mxCell id="olx1wI82DX2hjwp3p9a5-40" value="" style="endArrow=classic;html=1;rounded=0;entryX=0.5;entryY=0;entryDx=0;entryDy=0;" edge="1" parent="1" target="olx1wI82DX2hjwp3p9a5-23">
          <mxGeometry width="50" height="50" relative="1" as="geometry">
            <mxPoint x="640" y="-520" as="sourcePoint" />
            <mxPoint x="690" y="-570" as="targetPoint" />
          </mxGeometry>
        </mxCell>
        <mxCell id="olx1wI82DX2hjwp3p9a5-53" value="" style="edgeStyle=orthogonalEdgeStyle;rounded=0;orthogonalLoop=1;jettySize=auto;html=1;" edge="1" parent="1" source="olx1wI82DX2hjwp3p9a5-42" target="olx1wI82DX2hjwp3p9a5-48">
          <mxGeometry relative="1" as="geometry" />
        </mxCell>
        <mxCell id="olx1wI82DX2hjwp3p9a5-42" value="Close Order" style="rounded=1;whiteSpace=wrap;html=1;fillColor=#b0e3e6;strokeColor=#0e8088;" vertex="1" parent="1">
          <mxGeometry x="680" y="-387.5" width="90" height="50" as="geometry" />
        </mxCell>
        <mxCell id="olx1wI82DX2hjwp3p9a5-48" value="" style="ellipse;whiteSpace=wrap;html=1;aspect=fixed;" vertex="1" parent="1">
          <mxGeometry x="811" y="-381.87" width="38.75" height="38.75" as="geometry" />
        </mxCell>
        <mxCell id="olx1wI82DX2hjwp3p9a5-49" value="" style="ellipse;whiteSpace=wrap;html=1;aspect=fixed;strokeColor=#000000;fillColor=#000000;" vertex="1" parent="1">
          <mxGeometry x="819.75" y="-373.12" width="21.25" height="21.25" as="geometry" />
        </mxCell>
        <mxCell id="olx1wI82DX2hjwp3p9a5-55" value="[order rejected]" style="text;html=1;align=center;verticalAlign=middle;resizable=0;points=[];autosize=1;strokeColor=none;fillColor=none;" vertex="1" parent="1">
          <mxGeometry x="190" y="-550" width="100" height="30" as="geometry" />
        </mxCell>
        <mxCell id="olx1wI82DX2hjwp3p9a5-56" value="Send Invoice" style="rounded=1;whiteSpace=wrap;html=1;fillColor=#b0e3e6;strokeColor=#0e8088;" vertex="1" parent="1">
          <mxGeometry x="519" y="-260" width="90" height="50" as="geometry" />
        </mxCell>
        <mxCell id="olx1wI82DX2hjwp3p9a5-57" value="Check Payment" style="rounded=1;whiteSpace=wrap;html=1;fillColor=#b0e3e6;strokeColor=#0e8088;" vertex="1" parent="1">
          <mxGeometry x="356.25" y="-260" width="90" height="50" as="geometry" />
        </mxCell>
        <mxCell id="olx1wI82DX2hjwp3p9a5-59" value="" style="endArrow=none;html=1;rounded=0;exitX=0.114;exitY=1;exitDx=0;exitDy=0;exitPerimeter=0;" edge="1" parent="1" source="olx1wI82DX2hjwp3p9a5-11">
          <mxGeometry width="50" height="50" relative="1" as="geometry">
            <mxPoint x="460" y="-260" as="sourcePoint" />
            <mxPoint x="320" y="-240" as="targetPoint" />
            <Array as="points">
              <mxPoint x="460" y="-320" />
              <mxPoint x="460" y="-280" />
              <mxPoint x="320" y="-280" />
            </Array>
          </mxGeometry>
        </mxCell>
        <mxCell id="olx1wI82DX2hjwp3p9a5-60" value="" style="endArrow=classic;html=1;rounded=0;" edge="1" parent="1">
          <mxGeometry width="50" height="50" relative="1" as="geometry">
            <mxPoint x="320" y="-240" as="sourcePoint" />
            <mxPoint x="356" y="-240" as="targetPoint" />
          </mxGeometry>
        </mxCell>
        <mxCell id="olx1wI82DX2hjwp3p9a5-61" value="" style="endArrow=classic;html=1;rounded=0;" edge="1" parent="1">
          <mxGeometry width="50" height="50" relative="1" as="geometry">
            <mxPoint x="449.25" y="-240" as="sourcePoint" />
            <mxPoint x="519.25" y="-240" as="targetPoint" />
          </mxGeometry>
        </mxCell>
        <mxCell id="olx1wI82DX2hjwp3p9a5-62" value="" style="endArrow=none;html=1;rounded=0;" edge="1" parent="1">
          <mxGeometry width="50" height="50" relative="1" as="geometry">
            <mxPoint x="609" y="-240" as="sourcePoint" />
            <mxPoint x="520" y="-320" as="targetPoint" />
            <Array as="points">
              <mxPoint x="640" y="-240" />
              <mxPoint x="640" y="-280" />
              <mxPoint x="520" y="-280" />
            </Array>
          </mxGeometry>
        </mxCell>
        <mxCell id="olx1wI82DX2hjwp3p9a5-65" value="" style="endArrow=classic;html=1;rounded=0;entryX=0.132;entryY=-0.014;entryDx=0;entryDy=0;entryPerimeter=0;" edge="1" parent="1" target="olx1wI82DX2hjwp3p9a5-21">
          <mxGeometry width="50" height="50" relative="1" as="geometry">
            <mxPoint x="519" y="-321.25" as="sourcePoint" />
            <mxPoint x="550" y="-321" as="targetPoint" />
          </mxGeometry>
        </mxCell>
      </root>
    </mxGraphModel>
  </diagram>
</mxfile>
